<svg width="68" height="68" viewBox="0 0 68 68" fill="none" xmlns="http://www.w3.org/2000/svg">
<circle cx="34" cy="34" r="34" fill="#FFB342"/>
<path d="M47.2509 40.8062C46.3347 39.8832 44.1158 38.5361 43.0393 37.9933C41.6373 37.2871 41.5219 37.2294 40.42 38.0481C39.6849 38.5944 39.1963 39.0824 38.3361 38.899C37.4759 38.7155 35.6066 37.6811 33.9698 36.0497C32.333 34.4182 31.2386 32.4948 31.0545 31.6376C30.8705 30.7803 31.3667 30.2974 31.9078 29.5607C32.6705 28.5223 32.6128 28.3492 31.9609 26.9474C31.4526 25.857 30.0662 23.6591 29.1397 22.7476C28.1485 21.7686 28.1485 21.9416 27.5098 22.207C26.9899 22.4258 26.4911 22.6917 26.0196 23.0014C25.0965 23.6146 24.5842 24.124 24.2259 24.8896C23.8676 25.6551 23.7067 27.4499 25.5569 30.8109C27.4071 34.1719 28.7053 35.8905 31.392 38.5696C34.0788 41.2487 36.1449 42.6892 39.1651 44.383C42.9014 46.4754 44.3345 46.0675 45.1024 45.7098C45.8703 45.3522 46.382 44.8445 46.9965 43.9215C47.307 43.4508 47.5735 42.9526 47.7926 42.4331C48.0586 41.7967 48.2317 41.7967 47.2509 40.8062Z" stroke="#1C2752" stroke-width="2" stroke-miterlimit="10"/>
</svg>
