<svg width="55" height="56" viewBox="0 0 55 56" fill="none" xmlns="http://www.w3.org/2000/svg">
<circle cx="27.5" cy="28" r="27.5" fill="#FFB342"/>
<path d="M35.2188 20.584C34.0664 21.0723 33.0605 21.8145 32.2012 22.8105C31.3418 23.8066 30.8242 24.8223 30.6484 25.8574C30.5508 26.4043 30.502 26.873 30.502 27.2637C30.502 27.7129 30.5508 28.084 30.6484 28.377C31.5664 27.4199 32.7285 26.9414 34.1348 26.9414C35.541 26.9414 36.6836 27.3516 37.5625 28.1719C38.4414 28.9922 38.8809 30.125 38.8809 31.5703C38.8809 32.9375 38.4121 34.0508 37.4746 34.9102C36.5566 35.7695 35.3848 36.1992 33.959 36.1992C32.0059 36.1992 30.5801 35.4961 29.6816 34.0898C29.2715 33.4844 28.9492 32.7422 28.7148 31.8633C28.4805 30.9648 28.3633 30.0469 28.3633 29.1094C28.3633 27.0586 28.8906 25.1836 29.9453 23.4844C31 21.7852 32.5723 20.457 34.6621 19.5L35.2188 20.584ZM22.8555 20.584C21.7031 21.0723 20.6973 21.8145 19.8379 22.8105C18.9785 23.8066 18.4609 24.8223 18.2852 25.8574C18.1875 26.4043 18.1387 26.873 18.1387 27.2637C18.1387 27.7129 18.1875 28.084 18.2852 28.377C19.2031 27.4199 20.3652 26.9414 21.7715 26.9414C23.1777 26.9414 24.3203 27.3516 25.1992 28.1719C26.0781 28.9922 26.5176 30.125 26.5176 31.5703C26.5176 32.9375 26.0488 34.0508 25.1113 34.9102C24.1934 35.7695 23.0215 36.1992 21.5957 36.1992C19.6426 36.1992 18.2168 35.4961 17.3184 34.0898C16.9082 33.4844 16.5859 32.7422 16.3516 31.8633C16.1172 30.9648 16 30.0469 16 29.1094C16 27.0586 16.5273 25.1836 17.582 23.4844C18.6367 21.7852 20.209 20.457 22.2988 19.5L22.8555 20.584Z" fill="#1C2752"/>
</svg>
