<svg width="42" height="43" viewBox="0 0 42 43" fill="none" xmlns="http://www.w3.org/2000/svg">
<circle cx="21" cy="21.6757" r="21" fill="white"/>
<path d="M30.407 27.3475C29.6817 26.5783 27.925 25.4558 27.0727 25.0034C25.9629 24.4149 25.8715 24.3669 24.9991 25.049C24.4172 25.5043 24.0304 25.911 23.3494 25.7581C22.6684 25.6053 21.1885 24.7433 19.8928 23.3837C18.597 22.0242 17.7305 20.4214 17.5848 19.707C17.4391 18.9926 17.8319 18.5902 18.2604 17.9763C18.8642 17.1109 18.8185 16.9667 18.3024 15.7985C17.9 14.8899 16.8024 13.0582 16.0689 12.2986C15.2842 11.4828 15.2842 11.627 14.7786 11.8482C14.367 12.0305 13.9721 12.252 13.5989 12.5102C12.8681 13.0212 12.4625 13.4457 12.1788 14.0836C11.8952 14.7216 11.7678 16.2172 13.2326 19.0181C14.6973 21.8189 15.725 23.251 17.852 25.4836C19.9791 27.7162 21.6147 28.9167 24.0057 30.3281C26.9636 32.0718 28.0981 31.7319 28.7061 31.4339C29.314 31.1358 29.7191 30.7127 30.2055 29.9435C30.4514 29.5514 30.6624 29.1362 30.8358 28.7032C31.0464 28.1729 31.1834 28.1729 30.407 27.3475Z" stroke="#1C2752" stroke-width="1.5" stroke-miterlimit="10"/>
</svg>
